<svg width="1920" height="1080" viewBox="0 0 1920 1080" xmlns="http://www.w3.org/2000/svg"><rect width="1920" height="1080" fill="#f5f5f5"/><path d="M1920,1080C1641.5,1091.6666666666667,281.8333333333333,1099.3333333333333,0,1080C-281.8333333333333,1060.6666666666667,150,998,229,964C308,930,393.6666666666667,888.1666666666666,474,876C554.3333333333334,863.8333333333334,631,867.8333333333334,711,891C791,914.1666666666666,874,989.1666666666666,954,1015C1034,1040.8333333333333,1110.5,1053.3333333333333,1191,1046C1271.5,1038.6666666666667,1357,977,1437,971C1517,965,1590.5,991.8333333333334,1671,1010C1751.5,1028.1666666666667,2198.5,1068.3333333333333,1920,1080C1641.5,1091.6666666666667,281.8333333333333,1099.3333333333333,0,1080" fill="#eaf2fd"/></svg>