<svg width="1920" height="1080" viewBox="0 0 1920 1080" xmlns="http://www.w3.org/2000/svg"><rect width="1920" height="1080" fill="#f5f5f5"/><path d="M1920,1080C1641.3333333333333,1098.1666666666667,281.5,1115.8333333333333,0,1080C-281.5,1044.1666666666667,151.83333333333331,888.3333333333334,231,865C310.1666666666667,841.6666666666666,394.1666666666667,934.5,475,940C555.8333333333334,945.5,637.1666666666666,884.1666666666666,716,898C794.8333333333334,911.8333333333334,868.6666666666666,1015.5,948,1023C1027.3333333333333,1030.5,1111,946.5,1192,943C1273,939.5,1354,997.3333333333334,1434,1002C1514,1006.6666666666666,1591,958,1672,971C1753,984,2198.6666666666665,1061.8333333333333,1920,1080C1641.3333333333333,1098.1666666666667,281.5,1115.8333333333333,0,1080" fill="#eaf2fd"/></svg>