<svg width="1920" height="1080" viewBox="0 0 1920 1080" xmlns="http://www.w3.org/2000/svg"><rect width="1920" height="1080" fill="#eaf2fd"/><path d="M1920,1080C1641.1666666666667,1105.8333333333333,281,1102.6666666666667,0,1080C-281,1057.3333333333333,154.83333333333331,966.5,234,944C313.1666666666667,921.5,396,947.5,475,945C554,942.5,627.8333333333334,908.1666666666666,708,929C788.1666666666666,949.8333333333334,875.1666666666666,1065.1666666666667,956,1070C1036.8333333333333,1074.8333333333333,1113.6666666666667,973.1666666666666,1193,958C1272.3333333333333,942.8333333333334,1352,984.5,1432,979C1512,973.5,1591.6666666666667,908.1666666666666,1673,925C1754.3333333333333,941.8333333333334,2198.8333333333335,1054.1666666666667,1920,1080C1641.1666666666667,1105.8333333333333,281,1102.6666666666667,0,1080" fill="#f5f5f5"/></svg>