<svg width="1920" height="1080" viewBox="0 0 1920 1080" xmlns="http://www.w3.org/2000/svg"><rect width="1920" height="1080" fill="#f5f5f5"/><path d="M1920,1080C1641.1666666666667,1081.3333333333333,281.1666666666667,1087.6666666666667,0,1080C-281.1666666666667,1072.3333333333333,153.33333333333331,1037.6666666666667,233,1034C312.6666666666667,1030.3333333333333,397.5,1064.8333333333333,478,1058C558.5,1051.1666666666667,637.6666666666666,1013.3333333333334,716,993C794.3333333333334,972.6666666666666,869.1666666666666,935.6666666666666,948,936C1026.8333333333333,936.3333333333334,1108.6666666666667,992,1189,995C1269.3333333333333,998,1349.3333333333333,941.1666666666666,1430,954C1510.6666666666667,966.8333333333334,1591.3333333333333,1051,1673,1072C1754.6666666666667,1093,2198.8333333333335,1078.6666666666667,1920,1080C1641.1666666666667,1081.3333333333333,281.1666666666667,1087.6666666666667,0,1080" fill="#eaf2fd"/></svg>