<svg width="1920" height="1080" viewBox="0 0 1920 1080" xmlns="http://www.w3.org/2000/svg"><rect width="1920" height="1080" fill="#eaf2fd"/><path d="M1920,1080C1641.5,1109,281.5,1094.5,0,1080C-281.5,1065.5,152.5,1021.5,231,993C309.5,964.5,389.6666666666667,921.8333333333334,471,909C552.3333333333334,896.1666666666666,639,892.8333333333334,719,916C799,939.1666666666666,871.6666666666666,1038.1666666666667,951,1048C1030.3333333333333,1057.8333333333333,1114.5,1005,1195,975C1275.5,945,1354.6666666666667,879.5,1434,868C1513.3333333333333,856.5,1590,870.6666666666666,1671,906C1752,941.3333333333334,2198.5,1051,1920,1080C1641.5,1109,281.5,1094.5,0,1080" fill="#f5f5f5"/></svg>